# xmcd CD database file
#
# Track frame offsets:
#	150
#	15677
#	28703
#	44562
#	61290
#	81645
#	99185
#	117295
#	133442
#	149356
#	164988
#	184022
#	201399
#	219963
#	236803
#	253877
#	271198
#
# Disc length: 3887 seconds
#
# Revision: 16
# Processed by: cddbd v1.5.2PL0 Copyright (c) Steve Scherf et al.
# Submitted via: CDex 1.51
#
DISCID=0b0f2d11
DTITLE=Lonestar - Greatest Hits - From There To Here
DYEAR=2003
DGENRE=Country
TTITLE0=Tequila Talkin'
TTITLE1=No News
TTITLE2=Runnin' Away With My Heart
TTITLE3=Come Cryin' To Me
TTITLE4=You Walked In
TTITLE5=Everything's Changed
TTITLE6=Amazed
TTITLE7=Smile
TTITLE8=What About Now
TTITLE9=Tell Her
TTITLE10=I'm Already There
TTITLE11=With Me
TTITLE12=Not A Day Goes By
TTITLE13=My Front Porch Looking In
TTITLE14=I Pray
TTITLE15=Walking In Memphis
TTITLE16=I'm Already There (Message From Home)
EXTD=YEAR: 2003
EXTT0=
EXTT1=
EXTT2=
EXTT3=
EXTT4=
EXTT5=
EXTT6=
EXTT7=
EXTT8=
EXTT9=
EXTT10=
EXTT11=
EXTT12=
EXTT13=
EXTT14=
EXTT15=
EXTT16=
PLAYORDER=
